<mxfile host="app.diagrams.net" modified="2020-09-07T06:52:07.941Z" agent="5.0 (Macintosh; Intel Mac OS X 10_15_6) AppleWebKit/537.36 (KHTML, like Gecko) Chrome/85.0.4183.83 Safari/537.36" etag="-ECMDuzrhhRysqlyzhqS" version="13.6.6" type="github">
  <diagram id="q52CIunOg6If2OO_4I0w" name="Page-1">
    <mxGraphModel dx="466" dy="2068" grid="1" gridSize="10" guides="1" tooltips="1" connect="1" arrows="1" fold="1" page="1" pageScale="1" pageWidth="827" pageHeight="1169" math="0" shadow="0">
      <root>
        <mxCell id="0" />
        <mxCell id="1" parent="0" />
        <mxCell id="koTG6gk8eTBUdsHe92-d-1" value="database" style="shape=datastore;whiteSpace=wrap;html=1;" parent="1" vertex="1">
          <mxGeometry x="692" y="790" width="135" height="60" as="geometry" />
        </mxCell>
        <mxCell id="koTG6gk8eTBUdsHe92-d-2" value="Logic Layer" style="swimlane;" parent="1" vertex="1">
          <mxGeometry x="394.5" y="170" width="730" height="280" as="geometry" />
        </mxCell>
        <mxCell id="koTG6gk8eTBUdsHe92-d-6" value="Game Record &#xa;Controller" style="shape=module;align=left;spacingLeft=20;align=center;verticalAlign=top;" parent="koTG6gk8eTBUdsHe92-d-2" vertex="1">
          <mxGeometry x="585" y="145" width="130" height="50" as="geometry" />
        </mxCell>
        <mxCell id="koTG6gk8eTBUdsHe92-d-9" value="Teacher&#xa;Controller" style="shape=module;align=left;spacingLeft=20;align=center;verticalAlign=top;" parent="koTG6gk8eTBUdsHe92-d-2" vertex="1">
          <mxGeometry x="305" y="50" width="120" height="50" as="geometry" />
        </mxCell>
        <mxCell id="koTG6gk8eTBUdsHe92-d-10" value="Student&#xa;Controller" style="shape=module;align=left;spacingLeft=20;align=center;verticalAlign=top;" parent="koTG6gk8eTBUdsHe92-d-2" vertex="1">
          <mxGeometry x="420" y="200" width="120" height="50" as="geometry" />
        </mxCell>
        <mxCell id="koTG6gk8eTBUdsHe92-d-8" value="Question&#xa;Controller" style="shape=module;align=left;spacingLeft=20;align=center;verticalAlign=top;" parent="koTG6gk8eTBUdsHe92-d-2" vertex="1">
          <mxGeometry x="75" y="150" width="120" height="50" as="geometry" />
        </mxCell>
        <mxCell id="koTG6gk8eTBUdsHe92-d-43" value="" style="edgeStyle=segmentEdgeStyle;endArrow=classic;html=1;entryX=0.25;entryY=1;entryDx=0;entryDy=0;exitX=1;exitY=0.5;exitDx=0;exitDy=0;" parent="koTG6gk8eTBUdsHe92-d-2" source="koTG6gk8eTBUdsHe92-d-10" target="koTG6gk8eTBUdsHe92-d-6" edge="1">
          <mxGeometry width="50" height="50" relative="1" as="geometry">
            <mxPoint x="565" y="210" as="sourcePoint" />
            <mxPoint x="615" y="160" as="targetPoint" />
          </mxGeometry>
        </mxCell>
        <mxCell id="koTG6gk8eTBUdsHe92-d-45" value="" style="edgeStyle=elbowEdgeStyle;elbow=horizontal;endArrow=classic;html=1;entryX=0;entryY=0;entryDx=0;entryDy=15;entryPerimeter=0;" parent="koTG6gk8eTBUdsHe92-d-2" target="koTG6gk8eTBUdsHe92-d-6" edge="1">
          <mxGeometry width="50" height="50" relative="1" as="geometry">
            <mxPoint x="195" y="160" as="sourcePoint" />
            <mxPoint x="270" y="230" as="targetPoint" />
            <Array as="points">
              <mxPoint x="380" y="170" />
            </Array>
          </mxGeometry>
        </mxCell>
        <mxCell id="koTG6gk8eTBUdsHe92-d-46" value="" style="edgeStyle=elbowEdgeStyle;elbow=vertical;endArrow=none;html=1;exitX=0.5;exitY=0;exitDx=0;exitDy=0;entryX=0.25;entryY=1;entryDx=0;entryDy=0;endFill=0;" parent="koTG6gk8eTBUdsHe92-d-2" source="koTG6gk8eTBUdsHe92-d-8" target="koTG6gk8eTBUdsHe92-d-9" edge="1">
          <mxGeometry width="50" height="50" relative="1" as="geometry">
            <mxPoint x="130" y="140" as="sourcePoint" />
            <mxPoint x="180" y="90" as="targetPoint" />
          </mxGeometry>
        </mxCell>
        <mxCell id="koTG6gk8eTBUdsHe92-d-47" value="" style="edgeStyle=elbowEdgeStyle;elbow=vertical;endArrow=none;html=1;entryX=0.622;entryY=0.974;entryDx=0;entryDy=0;entryPerimeter=0;exitX=0.5;exitY=0;exitDx=0;exitDy=0;endFill=0;" parent="koTG6gk8eTBUdsHe92-d-2" source="koTG6gk8eTBUdsHe92-d-10" target="koTG6gk8eTBUdsHe92-d-9" edge="1">
          <mxGeometry width="50" height="50" relative="1" as="geometry">
            <mxPoint x="220" y="280" as="sourcePoint" />
            <mxPoint x="270" y="230" as="targetPoint" />
            <Array as="points">
              <mxPoint x="440" y="170" />
            </Array>
          </mxGeometry>
        </mxCell>
        <mxCell id="koTG6gk8eTBUdsHe92-d-48" value="" style="edgeStyle=elbowEdgeStyle;elbow=vertical;endArrow=none;html=1;entryX=0.872;entryY=0.994;entryDx=0;entryDy=0;entryPerimeter=0;exitX=0.5;exitY=0;exitDx=0;exitDy=0;endFill=0;" parent="koTG6gk8eTBUdsHe92-d-2" source="koTG6gk8eTBUdsHe92-d-6" target="koTG6gk8eTBUdsHe92-d-9" edge="1">
          <mxGeometry width="50" height="50" relative="1" as="geometry">
            <mxPoint x="220" y="280" as="sourcePoint" />
            <mxPoint x="270" y="230" as="targetPoint" />
          </mxGeometry>
        </mxCell>
        <mxCell id="koTG6gk8eTBUdsHe92-d-27" value="Data Access Layer" style="swimlane;" parent="1" vertex="1">
          <mxGeometry x="390" y="500" width="760" height="200" as="geometry" />
        </mxCell>
        <mxCell id="koTG6gk8eTBUdsHe92-d-30" value="Teacher-Question" style="html=1;" parent="koTG6gk8eTBUdsHe92-d-27" vertex="1">
          <mxGeometry x="40" y="90" width="110" height="50" as="geometry" />
        </mxCell>
        <mxCell id="koTG6gk8eTBUdsHe92-d-31" value="Student-Question" style="html=1;" parent="koTG6gk8eTBUdsHe92-d-27" vertex="1">
          <mxGeometry x="180" y="90" width="110" height="50" as="geometry" />
        </mxCell>
        <mxCell id="koTG6gk8eTBUdsHe92-d-33" value="Teacher" style="html=1;" parent="koTG6gk8eTBUdsHe92-d-27" vertex="1">
          <mxGeometry x="320" y="90" width="110" height="50" as="geometry" />
        </mxCell>
        <mxCell id="koTG6gk8eTBUdsHe92-d-34" value="Student" style="html=1;" parent="koTG6gk8eTBUdsHe92-d-27" vertex="1">
          <mxGeometry x="450" y="90" width="110" height="50" as="geometry" />
        </mxCell>
        <mxCell id="koTG6gk8eTBUdsHe92-d-36" value="Game Record" style="html=1;" parent="koTG6gk8eTBUdsHe92-d-27" vertex="1">
          <mxGeometry x="610" y="90" width="110" height="50" as="geometry" />
        </mxCell>
        <mxCell id="koTG6gk8eTBUdsHe92-d-28" value="" style="shape=singleArrow;direction=north;whiteSpace=wrap;html=1;" parent="1" vertex="1">
          <mxGeometry x="710" y="710" width="40" height="80" as="geometry" />
        </mxCell>
        <mxCell id="koTG6gk8eTBUdsHe92-d-29" value="" style="shape=singleArrow;direction=south;whiteSpace=wrap;html=1;" parent="1" vertex="1">
          <mxGeometry x="770" y="710" width="40" height="80" as="geometry" />
        </mxCell>
        <mxCell id="koTG6gk8eTBUdsHe92-d-37" value="" style="edgeStyle=elbowEdgeStyle;elbow=vertical;endArrow=none;html=1;entryX=0.25;entryY=1;entryDx=0;entryDy=0;exitX=0.5;exitY=0;exitDx=0;exitDy=0;endFill=0;" parent="1" source="koTG6gk8eTBUdsHe92-d-30" target="koTG6gk8eTBUdsHe92-d-8" edge="1">
          <mxGeometry width="50" height="50" relative="1" as="geometry">
            <mxPoint x="620" y="540" as="sourcePoint" />
            <mxPoint x="488.6400000000001" y="401.25" as="targetPoint" />
          </mxGeometry>
        </mxCell>
        <mxCell id="koTG6gk8eTBUdsHe92-d-38" value="" style="edgeStyle=elbowEdgeStyle;elbow=vertical;endArrow=none;html=1;entryX=0.75;entryY=1;entryDx=0;entryDy=0;endFill=0;" parent="1" source="koTG6gk8eTBUdsHe92-d-31" target="koTG6gk8eTBUdsHe92-d-8" edge="1">
          <mxGeometry width="50" height="50" relative="1" as="geometry">
            <mxPoint x="495" y="600" as="sourcePoint" />
            <mxPoint x="503.6400000000001" y="381.25" as="targetPoint" />
          </mxGeometry>
        </mxCell>
        <mxCell id="koTG6gk8eTBUdsHe92-d-39" value="" style="edgeStyle=elbowEdgeStyle;elbow=vertical;endArrow=none;html=1;entryX=0.5;entryY=1;entryDx=0;entryDy=0;endFill=0;" parent="1" source="koTG6gk8eTBUdsHe92-d-33" target="koTG6gk8eTBUdsHe92-d-9" edge="1">
          <mxGeometry width="50" height="50" relative="1" as="geometry">
            <mxPoint x="505" y="610" as="sourcePoint" />
            <mxPoint x="513.6400000000001" y="391.25" as="targetPoint" />
          </mxGeometry>
        </mxCell>
        <mxCell id="koTG6gk8eTBUdsHe92-d-40" value="" style="edgeStyle=elbowEdgeStyle;elbow=vertical;endArrow=none;html=1;entryX=0.5;entryY=1;entryDx=0;entryDy=0;exitX=0.5;exitY=0;exitDx=0;exitDy=0;endFill=0;" parent="1" source="koTG6gk8eTBUdsHe92-d-34" target="koTG6gk8eTBUdsHe92-d-10" edge="1">
          <mxGeometry width="50" height="50" relative="1" as="geometry">
            <mxPoint x="775" y="600" as="sourcePoint" />
            <mxPoint x="775" y="380" as="targetPoint" />
          </mxGeometry>
        </mxCell>
        <mxCell id="koTG6gk8eTBUdsHe92-d-41" value="" style="edgeStyle=elbowEdgeStyle;elbow=vertical;endArrow=none;html=1;entryX=0.5;entryY=1;entryDx=0;entryDy=0;exitX=0.5;exitY=0;exitDx=0;exitDy=0;endFill=0;" parent="1" source="koTG6gk8eTBUdsHe92-d-36" target="koTG6gk8eTBUdsHe92-d-6" edge="1">
          <mxGeometry width="50" height="50" relative="1" as="geometry">
            <mxPoint x="905" y="600" as="sourcePoint" />
            <mxPoint x="915" y="380" as="targetPoint" />
          </mxGeometry>
        </mxCell>
        <mxCell id="koTG6gk8eTBUdsHe92-d-69" value="API Layer" style="swimlane;" parent="1" vertex="1">
          <mxGeometry x="570" y="10" width="400" height="120" as="geometry" />
        </mxCell>
        <mxCell id="koTG6gk8eTBUdsHe92-d-74" value="API Manager" style="html=1;" parent="koTG6gk8eTBUdsHe92-d-69" vertex="1">
          <mxGeometry x="147" y="50" width="110" height="50" as="geometry" />
        </mxCell>
        <mxCell id="koTG6gk8eTBUdsHe92-d-76" value="Client" style="rounded=0;whiteSpace=wrap;html=1;" parent="1" vertex="1">
          <mxGeometry x="710" y="-190" width="120" height="120" as="geometry" />
        </mxCell>
        <mxCell id="koTG6gk8eTBUdsHe92-d-77" value="" style="shape=singleArrow;direction=north;whiteSpace=wrap;html=1;" parent="1" vertex="1">
          <mxGeometry x="710" y="-70" width="40" height="80" as="geometry" />
        </mxCell>
        <mxCell id="koTG6gk8eTBUdsHe92-d-78" value="" style="shape=singleArrow;direction=south;whiteSpace=wrap;html=1;" parent="1" vertex="1">
          <mxGeometry x="787" y="-70" width="40" height="80" as="geometry" />
        </mxCell>
        <mxCell id="koTG6gk8eTBUdsHe92-d-80" value="" style="endArrow=none;html=1;exitX=0.5;exitY=0;exitDx=0;exitDy=0;endFill=0;" parent="1" source="koTG6gk8eTBUdsHe92-d-2" edge="1">
          <mxGeometry width="50" height="50" relative="1" as="geometry">
            <mxPoint x="950" y="250" as="sourcePoint" />
            <mxPoint x="760" y="130" as="targetPoint" />
          </mxGeometry>
        </mxCell>
      </root>
    </mxGraphModel>
  </diagram>
</mxfile>
